{"title":"Mystery Road 2013.1080p.BluRay.x264 . NVEE","uid":9653140,"size":2674694926,"categoryP":"video","categoryS":"hd___movies","magnet":"?xt=urn:btih:6fa00cdfe72b83a2ccc27bd43e3a11052fc0eb17&amp;dn=Mystery+Road+2013.1080p.BluRay.x264+.+NVEE&amp;tr=udp%3A%2F%2Ftracker.openbittorrent.com%3A80&amp;tr=udp%3A%2F%2Fopen.demonii.com%3A1337&amp;tr=udp%3A%2F%2Ftracker.coppersurfer.tk%3A6969&amp;tr=udp%3A%2F%2Fexodus.desync.com%3A6969","seeders":1,"leechers":3,"uploader":".NVEE","files":-1,"time":1393129386,"description":"FULL_INFOs\n\n\nSource : Blu-ray ~ 1080p\n\nSpoken Language : English\n\nAudio : 6 ~ Channels Only\n\nAll .srt &amp; .idx subs can be turned On/Off\n_____________________________________\n\n\n &lt;a href=&quot;\nhttp://www.imdb.com/title/tt2236054/&quot; rel=&quot;nofollow&quot; target=&quot;_NEW&quot;&gt;\nhttp://www.imdb.com/title/tt2236054/&lt;/a&gt;\n\n\n\n---------------------------------------------------------------------------------\n\n\nGeneral Metadata\n\nComplete name : Mystery Road 2013.1080p.BluRay.x264 . NVEE.mp4\nFormat : MPEG-4\nFormat profile : Base Media\nCodec ID : isom\nFile size : 2.49 GiB\nDuration : 1h 58mn\nOverall bit rate : 3 007 Kbps\nEncoded date : UTC 2014-02-23 01:58:50\nTagged date : UTC 2014-02-23 01:58:50\n\n\nVideo\n\nID : 1\nFormat : AVC\nFormat/Info : Advanced Video Codec\nFormat profile : &lt;a class=&quot;__cf_email__&quot; href=&quot;/cdn-cgi/l/email-protection&quot; data-cfemail=&quot;753d1c121d3539415b45&quot;&gt;[email&amp;#160;protected]&lt;/a&gt;&lt;script cf-hash='f9e31' type=&quot;text/javascript&quot;&gt;\n/* &lt;![CDATA[ */!function(){try{var t=&quot;currentScript&quot;in document?document.currentScript:function(){for(var t=document.getElementsByTagName(&quot;script&quot;),e=t.length;e--;)if(t[e].getAttribute(&quot;cf-hash&quot;))return t[e]}();if(t&amp;&amp;t.previousSibling){var e,r,n,i,c=t.previousSibling,a=c.getAttribute(&quot;data-cfemail&quot;);if(a){for(e=&quot;&quot;,r=parseInt(a.substr(0,2),16),n=2;a.length-n;n+=2)i=parseInt(a.substr(n,2),16)^r,e+=String.fromCharCode(i);e=document.createTextNode(e),c.parentNode.replaceChild(e,c)}}}catch(u){}}();/* ]]&gt; */&lt;/script&gt;\nFormat settings, CABAC : Yes\nFormat settings, ReFrames : 3 frames\nCodec ID : avc1\nCodec ID/Info : Advanced Video Coding\nDuration : 1h 58mn\nBit rate : 2 428 Kbps\nMaximum bit rate : 14.1 Mbps\nWidth : 1 920 pixels\nHeight : 816 pixels\nDisplay aspect ratio : 2.35:1\nFrame rate mode : Constant\nFrame rate : 24.000 fps\nColor space : YUV\nChroma subsampling : 4:2:0\nBit depth : 8 bits\nScan type : Progressive\nBits/(Pixel*Frame) : 0.065\nStream size : 2.01 GiB (81%)\nWriting library : x264 core 138 r2358 9e941d1\n\n\nAudio\n\nID : 2\nFormat : AC-3\nFormat/Info : Audio Coding 3\nMode extension : CM (complete main)\nFormat settings, Endianness : Big\nCodec ID : ac-3\nDuration : 1h 58mn\nBit rate mode : Constant\nBit rate : 576 Kbps\nChannel(s) : 6 channels\nChannel positions : Front: L C R, Side: L R, LFE\nSampling rate : 48.0 KHz\nBit depth : 16 bits\nCompression mode : Lossy\nStream size : 489 MiB (19%)\nLanguage : English\nEncoded date : UTC 2014-02-23 02:08:45\nTagged date : UTC 2014-02-23 02:09:54\n\n\nSynopsis\n\nNear the rural town of Winton, Queensland, a truck driver hears a wild dog growling and finds the body of a teenage girl named Julie Mason inside one of the tunnels. Detective Jay Swan (Aaron Pedersen) is called from the city to investigate the murder. He learns that Julie was a drug addict and discovers she had sex with truck drivers for money.\n\nEnj0y !","torrent":{"xt":"urn:btih:6fa00cdfe72b83a2ccc27bd43e3a11052fc0eb17","amp;dn":"Mystery+Road+2013.1080p.BluRay.x264+.+NVEE","amp;tr":["udp%3A%2F%2Ftracker.openbittorrent.com%3A80","udp%3A%2F%2Fopen.demonii.com%3A1337","udp%3A%2F%2Ftracker.coppersurfer.tk%3A6969","udp%3A%2F%2Fexodus.desync.com%3A6969"],"infoHash":"6fa00cdfe72b83a2ccc27bd43e3a11052fc0eb17","infoHashBuffer":{"type":"Buffer","data":[111,160,12,223,231,43,131,162,204,194,123,212,62,58,17,5,47,192,235,23]},"announce":[],"urlList":[]}}